<svg width="68" height="68" viewBox="0 0 68 68" fill="none" xmlns="http://www.w3.org/2000/svg">
<rect width="68" height="68" rx="8" fill="#E1EAF8"/>
<g clip-path="url(#clip0_240_1269)">
<mask id="mask0_240_1269" style="mask-type:luminance" maskUnits="userSpaceOnUse" x="10" y="10" width="48" height="48">
<path d="M58 10H10V58H58V10Z" fill="white"/>
</mask>
<g mask="url(#mask0_240_1269)">
<path d="M53.6196 17.8802C50.9996 24.4202 45.0196 32.9602 39.3196 38.5402C38.4996 33.3802 34.3796 29.3402 29.1797 28.6202C34.7796 22.9002 43.3796 16.8402 49.9396 14.2002C51.0996 13.7602 52.2596 14.1002 52.9796 14.8202C53.7396 15.5802 54.0996 16.7202 53.6196 17.8802Z" fill="#126DFB"/>
<path opacity="0.4" d="M39.32 38.541C38.32 39.521 37.32 40.421 36.36 41.181L32.42 44.341C31.92 44.701 31.42 45.001 30.86 45.241C30.86 44.861 30.82 44.481 30.78 44.081C30.56 42.421 29.8 40.841 28.46 39.501C27.08 38.141 25.44 37.361 23.74 37.141C23.34 37.101 22.92 37.081 22.54 37.101C22.76 36.481 23.1 35.901 23.52 35.421L26.64 31.481C27.38 30.541 28.24 29.5811 29.18 28.6211C34.38 29.3411 38.5 33.381 39.32 38.541Z" fill="#126DFB"/>
<path d="M30.8596 45.2416C30.8596 47.4416 30.0196 49.5416 28.4195 51.1216C27.1995 52.3616 25.5595 53.2016 23.5595 53.4416L18.6595 53.9816C15.9795 54.2816 13.6795 51.9816 13.9795 49.2816L14.5195 44.3616C14.9995 39.9816 18.6595 37.1816 22.5395 37.1016C22.9195 37.0816 23.3395 37.1016 23.7395 37.1416C25.4395 37.3616 27.0795 38.1416 28.4595 39.5016C29.7995 40.8416 30.5596 42.4216 30.7796 44.0816C30.8196 44.4816 30.8596 44.8616 30.8596 45.2416Z" fill="#126DFB"/>
</g>
</g>
<defs>
<clipPath id="clip0_240_1269">
<rect width="48" height="48" fill="white" transform="translate(10 10)"/>
</clipPath>
</defs>
</svg>
