<svg width="68" height="68" viewBox="0 0 68 68" fill="none" xmlns="http://www.w3.org/2000/svg">
<rect width="68" height="68" rx="8" fill="#E1EAF8"/>
<g clip-path="url(#clip0_240_1333)">
<mask id="mask0_240_1333" style="mask-type:luminance" maskUnits="userSpaceOnUse" x="10" y="10" width="48" height="48">
<path d="M58 10H10V58H58V10Z" fill="white"/>
</mask>
<g mask="url(#mask0_240_1333)">
<path opacity="0.4" d="M46.9396 43.66L47.7196 49.98C47.9196 51.64 46.1396 52.8 44.7196 51.94L36.3396 46.96C35.4196 46.96 34.5198 46.9 33.6398 46.78C35.1198 45.04 35.9996 42.84 35.9996 40.46C35.9996 34.78 31.0796 30.18 24.9997 30.18C22.6797 30.18 20.5397 30.84 18.7597 32C18.6997 31.5 18.6797 31 18.6797 30.48C18.6797 21.38 26.5797 14 36.3396 14C46.0996 14 53.9996 21.38 53.9996 30.48C53.9996 35.88 51.2196 40.66 46.9396 43.66Z" fill="#126DFB"/>
<path d="M36 40.4596C36 42.8396 35.12 45.0396 33.64 46.7796C31.66 49.1796 28.52 50.7196 25 50.7196L19.78 53.8196C18.9 54.3596 17.78 53.6196 17.9 52.5996L18.4 48.6596C15.72 46.7996 14 43.8196 14 40.4596C14 36.9396 15.88 33.8396 18.76 31.9996C20.54 30.8396 22.68 30.1796 25 30.1796C31.08 30.1796 36 34.7796 36 40.4596Z" fill="#126DFB"/>
</g>
</g>
<defs>
<clipPath id="clip0_240_1333">
<rect width="48" height="48" fill="white" transform="translate(10 10)"/>
</clipPath>
</defs>
</svg>
